<svg xmlns="http://www.w3.org/2000/svg" width="104" height="16" viewBox="0 0 104 16">
  <g id="그룹_32058" data-name="그룹 32058" transform="translate(16168 18209)">
    <g id="그룹_32055" data-name="그룹 32055" transform="translate(-10)">
      <g id="그룹_32051" data-name="그룹 32051" transform="translate(-16428 -19101)">
        <rect id="사각형_16217" data-name="사각형 16217" width="16" height="16" transform="translate(270 892)" fill="none"/>
        <path id="패스_57071" data-name="패스 57071" d="M4.974,10.278,0,6.673,5,14.1,14.027,0Z" transform="translate(270.986 892.952)" fill="#0058ff"/>
      </g>
      <g id="그룹_32052" data-name="그룹 32052" transform="translate(-16406 -19101)">
        <rect id="사각형_16217-2" data-name="사각형 16217" width="16" height="16" transform="translate(270 892)" fill="none"/>
        <path id="패스_57071-2" data-name="패스 57071" d="M4.974,10.278,0,6.673,5,14.1,14.027,0Z" transform="translate(270.986 892.952)" fill="#01e6a8"/>
      </g>
      <g id="그룹_32053" data-name="그룹 32053" transform="translate(-16384 -19101)">
        <rect id="사각형_16217-3" data-name="사각형 16217" width="16" height="16" transform="translate(270 892)" fill="none"/>
        <path id="패스_57071-3" data-name="패스 57071" d="M4.974,10.278,0,6.673,5,14.1,14.027,0Z" transform="translate(270.986 892.952)" fill="#19dbcc"/>
      </g>
      <g id="그룹_32054" data-name="그룹 32054" transform="translate(-16362 -19101)">
        <rect id="사각형_16217-4" data-name="사각형 16217" width="16" height="16" transform="translate(270 892)" fill="none"/>
        <path id="패스_57071-4" data-name="패스 57071" d="M4.974,10.278,0,6.673,5,14.1,14.027,0Z" transform="translate(270.986 892.952)" fill="#ff9d19"/>
      </g>
      <g id="그룹_32057" data-name="그룹 32057" transform="translate(-16340 -19101)">
        <rect id="사각형_16217-5" data-name="사각형 16217" width="16" height="16" transform="translate(270 892)" fill="none"/>
        <path id="패스_57071-5" data-name="패스 57071" d="M4.974,10.278,0,6.673,5,14.1,14.027,0Z" transform="translate(270.986 892.952)" fill="#0042bf"/>
      </g>
    </g>
  </g>
</svg>
