<svg xmlns="http://www.w3.org/2000/svg" xmlns:xlink="http://www.w3.org/1999/xlink" width="1043.256" height="489.165" viewBox="0 0 1043.256 489.165">
  <defs>
    <clipPath id="clip-path">
      <rect id="사각형_16308" data-name="사각형 16308" width="1043.256" height="489.165" fill="#eaf4f8"/>
    </clipPath>
  </defs>
  <g id="그룹_31854" data-name="그룹 31854" clip-path="url(#clip-path)">
    <path id="패스_57134" data-name="패스 57134" d="M10.653,438.1a742.159,742.159,0,0,1,201.7-147.911q32.055-16.009,65.557-28.809l-7.077-9.206L169.271,479.525c-1.928,4.315,1.41,11.477,7.077,9.205a1276.189,1276.189,0,0,0,179.141-88.537,1279.364,1279.364,0,0,0,163.033-115.52q43.371-36.12,83.381-76.02l-10.7-4.431c1.621,33.172,33.32,55.023,64.208,57.849,39.548,3.617,76.7-20.529,109.8-38.767,66.04-36.39,131.944-74.176,190.089-122.564,32.474-27.025,61.972-57.44,86.78-91.687,4.738-6.541-6.13-12.8-10.822-6.326C989.6,60.242,933.893,105.646,874.8,144.247c-29.96,19.57-60.907,37.574-92.129,55.042q-23.568,13.186-47.3,26.089c-16.821,9.095-34.124,17.81-52.9,22.055-17.736,4.011-36.038,3.106-52.2-5.731-14.092-7.7-25.719-20.836-26.532-37.479-.26-5.322-6.719-8.4-10.7-4.431A1255.464,1255.464,0,0,1,442.684,327.821a1269.446,1269.446,0,0,1-168.4,102.871Q224.7,455.9,173.016,476.645l7.077,9.206L281.653,258.5c1.955-4.378-1.4-11.376-7.078-9.206A756.319,756.319,0,0,0,55.193,379.12q-27.927,23.718-53.4,50.113c-5.609,5.8,3.243,14.675,8.862,8.862" transform="translate(0 0)" fill="#eaf4f8"/>
  </g>
</svg>
