<svg xmlns="http://www.w3.org/2000/svg" width="1112.677" height="496.445" viewBox="0 0 1112.677 496.445">
  <path id="패스_57282" data-name="패스 57282" d="M118.307,687.027c-4.264,0-7.526-1.311-10-3.869-13.72-14.179,12.266-55.973,74.833-147.958C212.572,491.929,249.2,438.075,247.86,427c-.264-2.179-1.116-2.993-2.406-3.6-25.6-12.04-158,62.369-235.442,112.1a6.5,6.5,0,0,1-7.025-10.939c34.458-22.129,208.357-131.572,248-112.925a16.729,16.729,0,0,1,9.778,13.8c1.836,15.146-24.217,54.355-66.878,117.074-30.487,44.822-81.513,119.84-76.069,131.835a1.188,1.188,0,0,1,.311-.011c1.652,0,10.38-.4,40.056-19.19C384.945,511.587,504.152,421.437,561.44,378.113c42.107-31.843,48.578-36.738,55.461-31.693,5.533,4.055,2.848,11.606,1.243,16.118-1.746,4.91-6.04,12.776-11.476,22.734-13.418,24.578-41.337,75.72-26.469,89.125,18.094,16.313,110.008,1.282,522.29-282.668a6.5,6.5,0,0,1,7.374,10.706C764.556,440.258,642.747,491.677,595.44,491.68c-11.918,0-19.1-3.261-23.946-7.629-22.493-20.279,5.344-71.268,23.763-105.009,3.414-6.253,6.507-11.919,8.559-16.128-7.79,5.34-19.851,14.461-34.535,25.567-57.428,43.43-176.927,133.8-404.142,277.648C142.743,680.309,127.959,687.027,118.307,687.027Z" transform="translate(0.001 -190.582)" fill="#eaf4f8"/>
</svg>
