<svg xmlns="http://www.w3.org/2000/svg" xmlns:xlink="http://www.w3.org/1999/xlink" width="95.127" height="40.669" viewBox="0 0 95.127 40.669">
  <defs>
    <linearGradient id="linear-gradient" x1="0.5" y1="1" x2="0.5" y2="-0.016" gradientUnits="objectBoundingBox">
      <stop offset="0" stop-color="#63f2f2"/>
      <stop offset="0.694" stop-color="#197db7"/>
    </linearGradient>
    <linearGradient id="linear-gradient-2" x1="0.5" y1="1.02" x2="0.5" gradientUnits="objectBoundingBox">
      <stop offset="0" stop-color="#22c3d7"/>
      <stop offset="1" stop-color="#22ee80"/>
    </linearGradient>
  </defs>
  <g id="그룹_32056" data-name="그룹 32056" transform="translate(-510.748 -988.109)">
    <g id="그룹_17678" data-name="그룹 17678" transform="translate(546.224 1001.871)">
      <path id="패스_8570" data-name="패스 8570" d="M813.485,242h0a5.048,5.048,0,0,0-4.985,5.109v9.637a5.048,5.048,0,0,0,4.985,5.109h0a5.048,5.048,0,0,0,4.985-5.109v-9.637A5.048,5.048,0,0,0,813.485,242Zm2.067,14.83a2.067,2.067,0,1,1-4.134,0v-9.72a2.067,2.067,0,1,1,4.134,0Z" transform="translate(-808.5 -242)" fill="#fff"/>
      <path id="패스_8571" data-name="패스 8571" d="M1261.485,242.364h0a5.048,5.048,0,0,0-4.985,5.109v9.637a5.048,5.048,0,0,0,4.985,5.109h0a5.048,5.048,0,0,0,4.985-5.109v-9.637A5.048,5.048,0,0,0,1261.485,242.364Zm2.067,14.83a2.067,2.067,0,1,1-4.134,0v-9.72a2.067,2.067,0,1,1,4.134,0Z" transform="translate(-1219.28 -242.334)" fill="#fff"/>
      <path id="패스_8572" data-name="패스 8572" d="M963.485,242a5.048,5.048,0,0,0-4.985,5.109v13.334h0c0,.028,0,.055,0,.083a1.465,1.465,0,0,0,2.918,0c0-.028,0-.055,0-.083h0v-7.062h2.432v-.027a1.55,1.55,0,0,0,0-2.937v-.027h-2.432v-3.282a2.067,2.067,0,1,1,4.134,0V248.4h0a1.472,1.472,0,0,0,2.909,0h0v-1.288A5.048,5.048,0,0,0,963.485,242Z" transform="translate(-946.038 -242)" fill="#fff"/>
      <path id="패스_8573" data-name="패스 8573" d="M1094.485,242a5.048,5.048,0,0,0-4.985,5.109v13.334h0c0,.028,0,.055,0,.083a1.465,1.465,0,0,0,2.918,0c0-.028,0-.055,0-.083h0v-7.062h2.432v-.027a1.55,1.55,0,0,0,0-2.937v-.027h-2.432v-3.282a2.067,2.067,0,1,1,4.134,0V248.4h0a1.472,1.472,0,0,0,2.909,0h0v-1.288A5.048,5.048,0,0,0,1094.485,242Z" transform="translate(-1066.155 -242)" fill="#fff"/>
      <path id="패스_8574" data-name="패스 8574" d="M1411.485,242a4.867,4.867,0,0,0-2.364.61,1.507,1.507,0,0,0-1.162-.527,1.4,1.4,0,0,0-1.459,1.329v17.031h0c0,.028,0,.055,0,.083a1.465,1.465,0,0,0,2.918,0c0-.028,0-.055,0-.083h0V247.109a2.068,2.068,0,1,1,4.134,0v13.334h0c0,.028,0,.055,0,.083a1.465,1.465,0,0,0,2.918,0c0-.028,0-.055,0-.083h0V247.109A5.048,5.048,0,0,0,1411.485,242Z" transform="translate(-1356.818 -242)" fill="#fff"/>
      <path id="패스_8575" data-name="패스 8575" d="M1186.439,375.235h-3.9l-.049-2.766v-.012a2.144,2.144,0,0,1,2.084-1.946h.028l.028.005c.921.164,1.467-1.187,1.556-1.427v-.611a1.648,1.648,0,0,0-1.59-1.737,1.6,1.6,0,0,0-1.609,1.632.249.249,0,0,1-.5.025,2.1,2.1,0,0,1,2.075-2.154h.023a2.154,2.154,0,0,1,2.1,2.219v.712l-.013.038c-.026.079-.621,1.818-1.877,1.818a1.414,1.414,0,0,1-.22-.017,1.665,1.665,0,0,0-1.588,1.474l.04,2.252h3.409a.249.249,0,1,1,0,.5Z" transform="translate(-1151.421 -355.919)" fill="#fff"/>
    </g>
    <g id="그룹_27223" data-name="그룹 27223" transform="translate(510.748 988.109)">
      <g id="그룹_17535" data-name="그룹 17535">
        <path id="패스_8642" data-name="패스 8642" d="M544.85,1230.6a13.862,13.862,0,1,0,14.522,21.755Zm4.279,19.717q-.4.038-.881.038-.836,0-2.68-.046-1.672-.046-2.83-.046-.642,0-1.956.053v-.6q1.8-1.862,3.965-4.406-2.315-3.242-3.786-5.052v-.54q.8.015,5.122.015,1.463,0,2.994-.084l.1.068a6.13,6.13,0,0,0-.045.715q0,.182.015.486.03.745.03,1.277h-.6l-.082-.532a1.961,1.961,0,0,0-.22-.851,4.052,4.052,0,0,0-1.276-.137q-1.161-.038-1.586-.038-.224,0-1.642.023.537.814,2.843,3.832-.829,1.011-1.83,2.151-1.045,1.193-1.486,1.756,1.3.023,2.393.023a16.678,16.678,0,0,0,2.568-.1.732.732,0,0,0,.512-.582l.179-.661h.627Q549.2,1249.248,549.129,1250.32Z" transform="translate(-534.431 -1217.224)" fill="url(#linear-gradient)"/>
        <path id="패스_8643" data-name="패스 8643" d="M616.336,1230.6a13.8,13.8,0,0,0-4.578,2.124l11.344,8.013Z" transform="translate(-605.916 -1217.224)" fill="#08577f"/>
        <path id="패스_8644" data-name="패스 8644" d="M611.021,1053.5a13.833,13.833,0,0,0-10.806,5.181l14.646,22a13.862,13.862,0,0,0-3.841-27.181Zm.638,13.5a1.459,1.459,0,1,1,1.459-1.459A1.459,1.459,0,0,1,611.659,1067Zm5.836,0a1.459,1.459,0,1,1,1.459-1.459A1.459,1.459,0,0,1,617.495,1067Z" transform="translate(-595.245 -1053.501)" fill="url(#linear-gradient-2)"/>
      </g>
    </g>
  </g>
</svg>
