<svg xmlns="http://www.w3.org/2000/svg" width="216" height="42" viewBox="0 0 216 42">
  <g id="그룹_27226" data-name="그룹 27226" transform="translate(-297 -483.516)">
    <rect id="사각형_16345" data-name="사각형 16345" width="216" height="42" transform="translate(297 483.516)" fill="none"/>
    <g id="그룹_27222" data-name="그룹 27222" transform="translate(297 483.771)">
      <g id="그룹_17691" data-name="그룹 17691" transform="translate(0 0)">
        <g id="그룹_17678" data-name="그룹 17678" transform="translate(36.191 14.039)">
          <path id="패스_8570" data-name="패스 8570" d="M813.585,242h0a5.15,5.15,0,0,0-5.085,5.212v9.832a5.15,5.15,0,0,0,5.085,5.212h0a5.15,5.15,0,0,0,5.085-5.212v-9.832A5.15,5.15,0,0,0,813.585,242Zm2.109,15.129a2.109,2.109,0,1,1-4.217,0v-9.916a2.109,2.109,0,1,1,4.217,0Z" transform="translate(-808.5 -242)" fill="#fff"/>
          <path id="패스_8571" data-name="패스 8571" d="M1261.585,242.364h0a5.15,5.15,0,0,0-5.085,5.212v9.832a5.15,5.15,0,0,0,5.085,5.212h0a5.15,5.15,0,0,0,5.085-5.212v-9.832A5.15,5.15,0,0,0,1261.585,242.364Zm2.109,15.129a2.109,2.109,0,1,1-4.217,0v-9.916a2.109,2.109,0,1,1,4.217,0Z" transform="translate(-1218.53 -242.333)" fill="#fff"/>
          <path id="패스_8572" data-name="패스 8572" d="M963.585,242a5.15,5.15,0,0,0-5.085,5.212v13.6h0c0,.028,0,.056,0,.085a1.495,1.495,0,0,0,2.977,0c0-.029,0-.057,0-.085h0v-7.2h2.481v-.028a1.581,1.581,0,0,0,0-3v-.028h-2.481v-3.348a2.109,2.109,0,1,1,4.217,0v1.314h0a1.5,1.5,0,0,0,2.967,0h0v-1.314A5.15,5.15,0,0,0,963.585,242Z" transform="translate(-945.786 -242)" fill="#fff"/>
          <path id="패스_8573" data-name="패스 8573" d="M1094.585,242a5.15,5.15,0,0,0-5.085,5.212v13.6h0c0,.028,0,.056,0,.085a1.495,1.495,0,0,0,2.977,0c0-.029,0-.057,0-.085h0v-7.2h2.481v-.028a1.581,1.581,0,0,0,0-3v-.028h-2.481v-3.348a2.109,2.109,0,1,1,4.217,0v1.314h0a1.5,1.5,0,0,0,2.967,0h0v-1.314A5.15,5.15,0,0,0,1094.585,242Z" transform="translate(-1065.684 -242)" fill="#fff"/>
          <path id="패스_8574" data-name="패스 8574" d="M1411.585,242a4.965,4.965,0,0,0-2.412.623,1.537,1.537,0,0,0-1.185-.538,1.427,1.427,0,0,0-1.488,1.356v17.375h0c0,.028,0,.056,0,.085a1.495,1.495,0,0,0,2.977,0c0-.029,0-.057,0-.085h0v-13.6a2.109,2.109,0,1,1,4.217,0v13.6h0c0,.028,0,.056,0,.085a1.495,1.495,0,0,0,2.977,0c0-.029,0-.057,0-.085h0v-13.6A5.15,5.15,0,0,0,1411.585,242Z" transform="translate(-1355.816 -242)" fill="#fff"/>
          <path id="패스_8575" data-name="패스 8575" d="M1186.518,375.417h-3.977l-.05-2.822v-.012a2.188,2.188,0,0,1,2.127-1.985h.029l.029.005c.939.168,1.5-1.211,1.587-1.455v-.624a1.681,1.681,0,0,0-1.622-1.772,1.628,1.628,0,0,0-1.642,1.665.254.254,0,0,1-.508.025,2.144,2.144,0,0,1,2.117-2.2h.023a2.2,2.2,0,0,1,2.14,2.264v.726l-.013.039c-.027.08-.634,1.855-1.915,1.855a1.443,1.443,0,0,1-.224-.018,1.7,1.7,0,0,0-1.62,1.5l.04,2.3h3.477a.254.254,0,1,1,0,.509Z" transform="translate(-1150.794 -355.711)" fill="#fff"/>
        </g>
        <g id="그룹_27223" data-name="그룹 27223" transform="translate(0)">
          <g id="그룹_17535" data-name="그룹 17535">
            <path id="패스_8642" data-name="패스 8642" d="M545.06,1230.6a14.141,14.141,0,1,0,14.815,22.194Zm4.365,20.115q-.4.039-.9.039-.853,0-2.734-.047-1.706-.047-2.887-.047-.655,0-2,.054v-.613q1.836-1.9,4.045-4.494-2.362-3.308-3.863-5.154v-.551q.815.016,5.225.016,1.493,0,3.054-.085l.1.07a6.248,6.248,0,0,0-.046.729q0,.186.015.5.03.76.03,1.3h-.617l-.084-.543a2,2,0,0,0-.225-.869,4.128,4.128,0,0,0-1.3-.14q-1.184-.039-1.618-.039-.228,0-1.675.023.548.83,2.9,3.909-.846,1.032-1.867,2.195-1.066,1.218-1.516,1.792,1.327.023,2.441.023a17,17,0,0,0,2.62-.1.746.746,0,0,0,.523-.593l.183-.675h.64Q549.494,1249.624,549.426,1250.718Z" transform="translate(-534.431 -1216.954)" fill="#fff"/>
            <path id="패스_8643" data-name="패스 8643" d="M616.428,1230.6a14.079,14.079,0,0,0-4.67,2.166l11.572,8.174Z" transform="translate(-605.798 -1216.954)" fill="#fff"/>
            <path id="패스_8644" data-name="패스 8644" d="M611.239,1053.5a14.113,14.113,0,0,0-11.024,5.285l14.942,22.444a14.142,14.142,0,0,0-3.918-27.729Zm.651,13.768a1.488,1.488,0,1,1,1.488-1.489A1.489,1.489,0,0,1,611.89,1067.269Zm5.954,0a1.488,1.488,0,1,1,1.488-1.489A1.489,1.489,0,0,1,617.843,1067.269Z" transform="translate(-595.145 -1053.501)" fill="#fff"/>
          </g>
        </g>
      </g>
      <path id="패스_50837" data-name="패스 50837" d="M19.425-119.7a5.2,5.2,0,0,0-3.7,1.533,5.086,5.086,0,0,0-3.674-1.533,4.99,4.99,0,0,0-2.43.636,1.561,1.561,0,0,0-1.244-.636,1.543,1.543,0,0,0-1.533,1.533v17.185a1.543,1.543,0,0,0,1.533,1.533,1.543,1.543,0,0,0,1.533-1.533v-13.511a2.136,2.136,0,0,1,2.141-2.141,2.136,2.136,0,0,1,2.141,2.141v4.918a1.543,1.543,0,0,0,1.533,1.533,1.525,1.525,0,0,0,1.533-1.533v-4.918a2.161,2.161,0,0,1,2.17-2.141,2.136,2.136,0,0,1,2.141,2.141v13.511A1.543,1.543,0,0,0,23.1-99.448a1.543,1.543,0,0,0,1.533-1.533v-13.511A5.223,5.223,0,0,0,19.425-119.7ZM31-114.116a4.92,4.92,0,0,0-4.484,2.922,1.42,1.42,0,0,0,.723,1.909,1.429,1.429,0,0,0,1.909-.723A2.033,2.033,0,0,1,31-111.223a2.031,2.031,0,0,1,2.025,2.025v.347A4.729,4.729,0,0,0,31-109.314a4.939,4.939,0,0,0-4.918,4.947A4.933,4.933,0,0,0,31-99.448a4.84,4.84,0,0,0,2.314-.608,1.413,1.413,0,0,0,1.157.608,1.451,1.451,0,0,0,1.447-1.447v-8.3A4.933,4.933,0,0,0,31-114.116Zm0,11.775a2.031,2.031,0,0,1-2.025-2.025A2.037,2.037,0,0,1,31-106.421a2.037,2.037,0,0,1,2.025,2.054A2.031,2.031,0,0,1,31-102.342Zm13.019,0a2.05,2.05,0,0,1-2.025-2.025v-6.857h.289a1.432,1.432,0,0,0,1.447-1.447,1.451,1.451,0,0,0-1.447-1.447h-.289v-1.447a1.451,1.451,0,0,0-1.447-1.447,1.451,1.451,0,0,0-1.447,1.447v1.447h-.289a1.451,1.451,0,0,0-1.447,1.447,1.432,1.432,0,0,0,1.447,1.447H39.1v6.857a4.933,4.933,0,0,0,4.918,4.918,1.451,1.451,0,0,0,1.447-1.447A1.432,1.432,0,0,0,44.016-102.342Zm7.811-11.775a4.729,4.729,0,0,0-2.025.463v-3.472a1.432,1.432,0,0,0-1.447-1.447,1.432,1.432,0,0,0-1.447,1.447v16.23a1.451,1.451,0,0,0,1.447,1.447A1.451,1.451,0,0,0,49.8-100.9v-8.3a2.031,2.031,0,0,1,2.025-2.025,2.031,2.031,0,0,1,2.025,2.025v8.3A1.47,1.47,0,0,0,55.3-99.448a1.451,1.451,0,0,0,1.447-1.447v-8.3A4.933,4.933,0,0,0,51.827-114.116ZM69.244-119.7a5.223,5.223,0,0,0-5.208,5.208v1.244a5.223,5.223,0,0,0,5.208,5.208,2.136,2.136,0,0,1,2.141,2.141v1.244a2.136,2.136,0,0,1-2.141,2.141,2.136,2.136,0,0,1-2.141-2.141v-1.07a1.519,1.519,0,0,0-1.533-1.5,1.525,1.525,0,0,0-1.533,1.533v1.042a5.223,5.223,0,0,0,5.208,5.208,5.2,5.2,0,0,0,5.208-5.208V-105.9a5.223,5.223,0,0,0-5.208-5.208,2.136,2.136,0,0,1-2.141-2.141v-1.244a2.136,2.136,0,0,1,2.141-2.141,2.136,2.136,0,0,1,2.141,2.141v1.041a1.525,1.525,0,0,0,1.533,1.533,1.507,1.507,0,0,0,1.533-1.533v-1.041A5.2,5.2,0,0,0,69.244-119.7Zm8.1,1.128a1.432,1.432,0,0,0-1.447,1.447v.984a1.432,1.432,0,0,0,1.447,1.447,1.432,1.432,0,0,0,1.447-1.447v-.984A1.432,1.432,0,0,0,77.344-118.572Zm0,4.455A1.451,1.451,0,0,0,75.9-112.67V-100.9a1.451,1.451,0,0,0,1.447,1.447,1.451,1.451,0,0,0,1.447-1.447V-112.67A1.451,1.451,0,0,0,77.344-114.116Zm11.283,0a1.413,1.413,0,0,0-1.157.608,4.84,4.84,0,0,0-2.314-.608,4.933,4.933,0,0,0-4.918,4.918v4.831a4.933,4.933,0,0,0,4.918,4.918,4.73,4.73,0,0,0,2.025-.463v.955A2.037,2.037,0,0,1,85.156-96.9H82.841a1.426,1.426,0,0,0-1.447,1.418,1.432,1.432,0,0,0,1.447,1.447h2.314a4.914,4.914,0,0,0,4.918-4.918V-112.67A1.451,1.451,0,0,0,88.627-114.116ZM87.181-109.2v4.831a2.031,2.031,0,0,1-2.025,2.025,2.031,2.031,0,0,1-2.025-2.025V-109.2a2.031,2.031,0,0,1,2.025-2.025A2.031,2.031,0,0,1,87.181-109.2Zm16.2-4.918a4.926,4.926,0,0,0-3.472,1.447,4.825,4.825,0,0,0-3.472-1.447,4.84,4.84,0,0,0-2.314.608,1.375,1.375,0,0,0-1.157-.608,1.451,1.451,0,0,0-1.447,1.447V-100.9a1.451,1.451,0,0,0,1.447,1.447,1.451,1.451,0,0,0,1.447-1.447v-8.3a2.031,2.031,0,0,1,2.025-2.025,2.031,2.031,0,0,1,2.025,2.025v4.658a1.47,1.47,0,0,0,1.447,1.447,1.451,1.451,0,0,0,1.447-1.447V-109.2a2.05,2.05,0,0,1,2.025-2.025,2.056,2.056,0,0,1,2.054,2.025v8.3a1.451,1.451,0,0,0,1.447,1.447,1.47,1.47,0,0,0,1.447-1.447v-8.3A4.958,4.958,0,0,0,103.382-114.116Zm11.312,0a4.92,4.92,0,0,0-4.484,2.922,1.42,1.42,0,0,0,.723,1.909,1.429,1.429,0,0,0,1.909-.723,2.033,2.033,0,0,1,1.852-1.215,2.031,2.031,0,0,1,2.025,2.025v.347a4.729,4.729,0,0,0-2.025-.463,4.939,4.939,0,0,0-4.918,4.947,4.933,4.933,0,0,0,4.918,4.918,4.84,4.84,0,0,0,2.314-.608,1.413,1.413,0,0,0,1.157.608,1.451,1.451,0,0,0,1.447-1.447v-8.3A4.933,4.933,0,0,0,114.694-114.116Zm0,11.775a2.031,2.031,0,0,1-2.025-2.025,2.037,2.037,0,0,1,2.025-2.054,2.037,2.037,0,0,1,2.025,2.054A2.031,2.031,0,0,1,114.694-102.342Z" transform="translate(96.21 133.793)" fill="#fff"/>
    </g>
  </g>
</svg>
