<svg id="그룹_17503" data-name="그룹 17503" xmlns="http://www.w3.org/2000/svg" width="47.563" height="13.917" viewBox="0 0 47.563 13.917">
  <g id="그룹_17499" data-name="그룹 17499" transform="translate(0 0.325)">
    <path id="패스_8579" data-name="패스 8579" d="M856.461,762.183a3.034,3.034,0,0,0-2.532-1.8h-5.715a3.034,3.034,0,0,0-2.532,1.8,5.177,5.177,0,0,0-.48,1.8v.717a5.176,5.176,0,0,0,.48,1.8,3.034,3.034,0,0,0,2.532,1.8h5.715a3.034,3.034,0,0,0,2.532-1.8,5.174,5.174,0,0,0,.48-1.8v-.717A5.175,5.175,0,0,0,856.461,762.183Zm-1.887,2.144v.171c-.132,1.611-1.368,1.611-1.368,1.611h-4.245s-1.236,0-1.368-1.611v-.305c.132-1.611,1.368-1.611,1.368-1.611h4.245s1.236,0,1.368,1.611Z" transform="translate(-844.882 -760.378)" fill="#5de8ed"/>
    <path id="패스_8580" data-name="패스 8580" d="M839.879,902.577v-.106a1.084,1.084,0,0,1,1.031-.947h4v-1.553a1.53,1.53,0,0,1,.044-.286,1.112,1.112,0,0,1,1.054-.8h.156a1.112,1.112,0,0,1,1.054.8,1.524,1.524,0,0,1,.044.286v1.553h4a1.084,1.084,0,0,1,1.031.947v.308a1.084,1.084,0,0,1-1.031.947H840.911a1.084,1.084,0,0,1-1.031-.947v-.2Z" transform="translate(-839.879 -890.543)" fill="#5de8ed"/>
  </g>
  <g id="그룹_17500" data-name="그룹 17500" transform="translate(13.753 0.431)">
    <path id="패스_8581" data-name="패스 8581" d="M1080.554,943.653v-.1a1.09,1.09,0,0,0-1.038-.947H1069.18a1.089,1.089,0,0,0-1.038.947v.308a1.089,1.089,0,0,0,1.038.947h10.336a1.09,1.09,0,0,0,1.038-.947v-.213" transform="translate(-1068.142 -931.735)" fill="#5de8ed"/>
    <path id="패스_8582" data-name="패스 8582" d="M1074.068,763.352a.92.92,0,0,0,.063.307.845.845,0,0,0,.82.563h9.966a.845.845,0,0,0,.82-.563.923.923,0,0,0,.062-.307V763a.924.924,0,0,0-.062-.307.845.845,0,0,0-.82-.563h-9.966a.845.845,0,0,0-.82.563.921.921,0,0,0-.062.307Z" transform="translate(-1073.711 -762.125)" fill="#5de8ed"/>
    <path id="패스_8583" data-name="패스 8583" d="M1087.209,808.687a.909.909,0,0,0-.744-.9h-1.243l.205-2.438s.158-.824-.857-1.059a1.7,1.7,0,0,0-.581-.018,1.137,1.137,0,0,0-.917,1.061l-.216,2.447h-2.8l-.216-2.447a1.137,1.137,0,0,0-.917-1.061,1.7,1.7,0,0,0-.581.018c-1.015.235-.857,1.059-.857,1.059l.205,2.438h-1.243a.909.909,0,0,0-.744.9l0,.3a.909.909,0,0,0,.744.9h10.02a.909.909,0,0,0,.744-.9Z" transform="translate(-1075.247 -801.716)" fill="#5de8ed"/>
  </g>
  <g id="그룹_17501" data-name="그룹 17501" transform="translate(35.151)">
    <path id="패스_8584" data-name="패스 8584" d="M1434.708,761.637h-4.078v-1.181h2.383a2.293,2.293,0,0,0,2.045-1.4,2.888,2.888,0,0,0,.276-1.306v-.075a2.889,2.889,0,0,0-.276-1.306,2.293,2.293,0,0,0-2.045-1.4h-7.047a2.293,2.293,0,0,0-2.045,1.4,2.891,2.891,0,0,0-.276,1.306v.075a2.89,2.89,0,0,0,.276,1.306,2.293,2.293,0,0,0,2.045,1.4h2.383v1.181h-4.078a1.024,1.024,0,0,0-.987.986v.13a1.024,1.024,0,0,0,.987.987h10.439a1.024,1.024,0,0,0,.987-.987v-.13A1.024,1.024,0,0,0,1434.708,761.637Zm-5.167-3.176H1426.6a.644.644,0,0,1-.622-.706v-.075a.644.644,0,0,1,.622-.706h5.772a.644.644,0,0,1,.622.706v.075a.643.643,0,0,1-.622.706Z" transform="translate(-1423.283 -754.978)" fill="#5de8ed"/>
    <path id="패스_8585" data-name="패스 8585" d="M1442.949,914.27a.9.9,0,0,1-.868.933h-9.677s-1.125.1-1.188-1.254v-2.043a1.067,1.067,0,0,1,1.187-1.017h0a1.069,1.069,0,0,1,1.188,1.017v1.269h8.489a.9.9,0,0,1,.868.933Z" transform="translate(-1430.739 -901.495)" fill="#5de8ed"/>
  </g>
  <g id="그룹_17502" data-name="그룹 17502" transform="translate(27.377 6.762)">
    <path id="패스_8586" data-name="패스 8586" d="M1318.094,870.3v.059c-.016.206-.242.185-.242.185h-3.905s-.205.007-.205-.244v-2.888a.187.187,0,0,1,.2-.21h3.836s.226-.021.242.185v.143c-.016.206-.242.185-.242.185h-3.364s-.111-.017-.1.126v.615c-.012.143.1.126.1.126h3.3s.225-.021.242.185v.177c-.016.206-.242.185-.242.185h-3.3s-.111-.017-.1.126v.652c-.012.143.1.126.1.126h3.442s.225-.021.242.185v.081Z" transform="translate(-1312.568 -867.205)" fill="#5de8ed"/>
    <path id="패스_8587" data-name="패스 8587" d="M1297.668,941.026h.07c.162,0,.149-.177.149-.177v-2.064a.131.131,0,0,1,.146-.143h2.628a.181.181,0,0,0,.159-.174v-.15a.181.181,0,0,0-.159-.174h-6.251a.191.191,0,0,0-.158.181v.143a.181.181,0,0,0,.158.174h2.761a.132.132,0,0,1,.146.143v2.064s-.013.177.149.177h.2Z" transform="translate(-1294.252 -933.871)" fill="#5de8ed"/>
  </g>
</svg>
