<svg xmlns="http://www.w3.org/2000/svg" xmlns:xlink="http://www.w3.org/1999/xlink" width="133.31" height="37.671" viewBox="0 0 133.31 37.671">
  <defs>
    <linearGradient id="linear-gradient" x1="0.5" y1="1" x2="0.5" y2="-0.016" gradientUnits="objectBoundingBox">
      <stop offset="0" stop-color="#63f2f2"/>
      <stop offset="0.694" stop-color="#197db7"/>
    </linearGradient>
    <linearGradient id="linear-gradient-2" x1="0.5" y1="1.02" x2="0.5" gradientUnits="objectBoundingBox">
      <stop offset="0" stop-color="#22c3d7"/>
      <stop offset="1" stop-color="#22ee80"/>
    </linearGradient>
  </defs>
  <g id="그룹_27227" data-name="그룹 27227" transform="translate(-297 -483.771)">
    <g id="그룹_27222" data-name="그룹 27222" transform="translate(297 483.771)">
      <g id="그룹_17691" data-name="그룹 17691" transform="translate(0 0)">
        <g id="그룹_27223" data-name="그룹 27223">
          <g id="그룹_17535" data-name="그룹 17535">
            <path id="패스_8642" data-name="패스 8642" d="M544.082,1230.6a12.84,12.84,0,1,0,13.452,20.152Zm3.964,18.264q-.367.035-.816.035-.775,0-2.483-.042-1.549-.042-2.621-.042-.595,0-1.812.049v-.556q1.667-1.725,3.673-4.081-2.145-3-3.507-4.679v-.5q.74.014,4.744.014,1.355,0,2.773-.078l.09.063a5.662,5.662,0,0,0-.042.662q0,.169.014.451.027.69.028,1.183h-.56l-.076-.493a1.817,1.817,0,0,0-.2-.789,3.748,3.748,0,0,0-1.182-.127q-1.075-.035-1.469-.035-.207,0-1.521.021.5.754,2.634,3.549-.768.937-1.695,1.993-.968,1.105-1.377,1.627,1.205.021,2.216.021a15.47,15.47,0,0,0,2.379-.095.678.678,0,0,0,.475-.539l.166-.613h.581Q548.108,1247.874,548.046,1248.867Z" transform="translate(-534.431 -1218.21)" fill="url(#linear-gradient)"/>
            <path id="패스_8643" data-name="패스 8643" d="M616,1230.6a12.778,12.778,0,0,0-4.24,1.967l10.507,7.422Z" transform="translate(-606.347 -1218.21)" fill="#08577f"/>
            <path id="패스_8644" data-name="패스 8644" d="M610.224,1053.5a12.813,12.813,0,0,0-10.009,4.8l13.567,20.378a12.84,12.84,0,0,0-3.558-25.177Zm.591,12.5a1.351,1.351,0,1,1,1.351-1.351A1.351,1.351,0,0,1,610.815,1066Zm5.406,0a1.351,1.351,0,1,1,1.352-1.351A1.351,1.351,0,0,1,616.221,1066Z" transform="translate(-595.612 -1053.501)" fill="url(#linear-gradient-2)"/>
          </g>
        </g>
      </g>
      <path id="패스_50837" data-name="패스 50837" d="M17.859-119.7a4.556,4.556,0,0,0-3.242,1.343A4.453,4.453,0,0,0,11.4-119.7a4.369,4.369,0,0,0-2.128.557,1.366,1.366,0,0,0-1.089-.557,1.351,1.351,0,0,0-1.343,1.343v15.047a1.352,1.352,0,0,0,1.343,1.343,1.352,1.352,0,0,0,1.343-1.343v-11.83a1.87,1.87,0,0,1,1.875-1.875,1.87,1.87,0,0,1,1.875,1.875v4.306a1.352,1.352,0,0,0,1.343,1.343,1.335,1.335,0,0,0,1.343-1.343v-4.306a1.892,1.892,0,0,1,1.9-1.875,1.87,1.87,0,0,1,1.875,1.875v11.83a1.352,1.352,0,0,0,1.343,1.343,1.352,1.352,0,0,0,1.343-1.343v-11.83A4.573,4.573,0,0,0,17.859-119.7Zm10.133,4.889a4.308,4.308,0,0,0-3.926,2.559,1.243,1.243,0,0,0,.633,1.672,1.251,1.251,0,0,0,1.672-.633,1.78,1.78,0,0,1,1.621-1.064,1.778,1.778,0,0,1,1.773,1.773v.3a4.141,4.141,0,0,0-1.773-.405,4.324,4.324,0,0,0-4.306,4.332,4.319,4.319,0,0,0,4.306,4.306,4.238,4.238,0,0,0,2.027-.532,1.237,1.237,0,0,0,1.013.532,1.27,1.27,0,0,0,1.267-1.267v-7.27A4.319,4.319,0,0,0,27.992-114.811Zm0,10.31a1.778,1.778,0,0,1-1.773-1.773,1.784,1.784,0,0,1,1.773-1.8,1.784,1.784,0,0,1,1.773,1.8A1.778,1.778,0,0,1,27.992-104.5Zm11.4,0a1.8,1.8,0,0,1-1.773-1.773v-6h.253a1.254,1.254,0,0,0,1.267-1.267,1.27,1.27,0,0,0-1.267-1.267h-.253v-1.267a1.27,1.27,0,0,0-1.267-1.267,1.27,1.27,0,0,0-1.267,1.267v1.267h-.253a1.27,1.27,0,0,0-1.267,1.267,1.254,1.254,0,0,0,1.267,1.267h.253v6a4.319,4.319,0,0,0,4.306,4.306,1.27,1.27,0,0,0,1.267-1.267A1.254,1.254,0,0,0,39.392-104.5Zm6.84-10.31a4.141,4.141,0,0,0-1.773.405v-3.04a1.254,1.254,0,0,0-1.267-1.267,1.254,1.254,0,0,0-1.267,1.267v14.211a1.27,1.27,0,0,0,1.267,1.267,1.27,1.27,0,0,0,1.267-1.267v-7.27a1.778,1.778,0,0,1,1.773-1.773A1.778,1.778,0,0,1,48-110.5v7.27a1.287,1.287,0,0,0,1.267,1.267,1.27,1.27,0,0,0,1.267-1.267v-7.27A4.319,4.319,0,0,0,46.231-114.811Zm15.25-4.889a4.573,4.573,0,0,0-4.56,4.56v1.089a4.573,4.573,0,0,0,4.56,4.56,1.87,1.87,0,0,1,1.875,1.875v1.089a1.87,1.87,0,0,1-1.875,1.875,1.87,1.87,0,0,1-1.875-1.875v-.937a1.33,1.33,0,0,0-1.343-1.317,1.335,1.335,0,0,0-1.343,1.343v.912a4.573,4.573,0,0,0,4.56,4.56,4.557,4.557,0,0,0,4.56-4.56v-1.089a4.573,4.573,0,0,0-4.56-4.56,1.87,1.87,0,0,1-1.875-1.875v-1.089a1.87,1.87,0,0,1,1.875-1.875,1.87,1.87,0,0,1,1.875,1.875v.912a1.335,1.335,0,0,0,1.343,1.343,1.32,1.32,0,0,0,1.343-1.343v-.912A4.557,4.557,0,0,0,61.481-119.7Zm7.093.988a1.254,1.254,0,0,0-1.267,1.267v.861a1.254,1.254,0,0,0,1.267,1.267,1.254,1.254,0,0,0,1.267-1.267v-.861A1.254,1.254,0,0,0,68.574-118.712Zm0,3.9a1.27,1.27,0,0,0-1.267,1.267v10.31a1.27,1.27,0,0,0,1.267,1.267,1.27,1.27,0,0,0,1.267-1.267v-10.31A1.27,1.27,0,0,0,68.574-114.811Zm9.879,0a1.237,1.237,0,0,0-1.013.532,4.238,4.238,0,0,0-2.027-.532,4.319,4.319,0,0,0-4.306,4.306v4.23a4.319,4.319,0,0,0,4.306,4.306,4.142,4.142,0,0,0,1.773-.405v.836a1.784,1.784,0,0,1-1.773,1.8H73.387A1.249,1.249,0,0,0,72.12-98.5a1.254,1.254,0,0,0,1.267,1.267h2.027a4.3,4.3,0,0,0,4.306-4.306v-12.007A1.27,1.27,0,0,0,78.453-114.811ZM77.187-110.5v4.23a1.778,1.778,0,0,1-1.773,1.773,1.778,1.778,0,0,1-1.773-1.773v-4.23a1.778,1.778,0,0,1,1.773-1.773A1.778,1.778,0,0,1,77.187-110.5Zm14.186-4.306a4.313,4.313,0,0,0-3.04,1.267,4.225,4.225,0,0,0-3.04-1.267,4.238,4.238,0,0,0-2.027.532,1.2,1.2,0,0,0-1.013-.532,1.27,1.27,0,0,0-1.267,1.267v10.31a1.27,1.27,0,0,0,1.267,1.267,1.27,1.27,0,0,0,1.267-1.267v-7.27a1.778,1.778,0,0,1,1.773-1.773,1.778,1.778,0,0,1,1.773,1.773v4.078a1.287,1.287,0,0,0,1.267,1.267,1.27,1.27,0,0,0,1.267-1.267V-110.5a1.8,1.8,0,0,1,1.773-1.773,1.8,1.8,0,0,1,1.8,1.773v7.27a1.27,1.27,0,0,0,1.267,1.267,1.287,1.287,0,0,0,1.267-1.267v-7.27A4.341,4.341,0,0,0,91.373-114.811Zm9.9,0a4.308,4.308,0,0,0-3.926,2.559,1.243,1.243,0,0,0,.633,1.672,1.251,1.251,0,0,0,1.672-.633,1.78,1.78,0,0,1,1.621-1.064,1.778,1.778,0,0,1,1.773,1.773v.3a4.141,4.141,0,0,0-1.773-.405,4.324,4.324,0,0,0-4.306,4.332,4.319,4.319,0,0,0,4.306,4.306,4.238,4.238,0,0,0,2.027-.532,1.237,1.237,0,0,0,1.013.532,1.27,1.27,0,0,0,1.267-1.267v-7.27A4.319,4.319,0,0,0,101.278-114.811Zm0,10.31a1.778,1.778,0,0,1-1.773-1.773,1.784,1.784,0,0,1,1.773-1.8,1.784,1.784,0,0,1,1.773,1.8A1.778,1.778,0,0,1,101.278-104.5Z" transform="translate(27.726 129.902)" fill="#0163d5"/>
    </g>
  </g>
</svg>
