<svg xmlns="http://www.w3.org/2000/svg" width="84" height="84" viewBox="0 0 84 84">
  <g id="그룹_31897" data-name="그룹 31897" transform="translate(-706 -3459)">
    <rect id="사각형_11497" data-name="사각형 11497" width="84" height="84" rx="20" transform="translate(706 3459)" fill="#007bd5"/>
    <g id="그룹_31807" data-name="그룹 31807" transform="translate(0.328 98)">
      <path id="패스_50948" data-name="패스 50948" d="M41.654,15.273a8.332,8.332,0,0,0-8.331-8.331h-2.5A11.335,11.335,0,0,0,9.037,11.108H6.249a6.248,6.248,0,1,0,0,12.5H34.018a6.216,6.216,0,0,0,4-1.451,8.316,8.316,0,0,0,3.636-6.88" transform="translate(726.673 3391.199)" fill="#fff"/>
      <path id="패스_50949" data-name="패스 50949" d="M26.957,5.181l-5.015,9.673,6.627-.18L24.987,21.84l7.344-8.777-6.09-.358Z" transform="translate(720.498 3390.054)" fill="#007bd5"/>
    </g>
  </g>
</svg>
