<svg xmlns="http://www.w3.org/2000/svg" width="84" height="84" viewBox="0 0 84 84">
  <g id="그룹_31898" data-name="그룹 31898" transform="translate(-1011 -3459)">
    <rect id="사각형_11499" data-name="사각형 11499" width="84" height="84" rx="20" transform="translate(1011 3459)" fill="#fbd301"/>
    <g id="그룹_31808" data-name="그룹 31808" transform="translate(-1.393 100)">
      <path id="패스_50971" data-name="패스 50971" d="M11.852,7.055V4.8l-1.42-.168a4.675,4.675,0,0,0-.4-.972l.884-1.122-1.6-1.6L8.2,1.821a4.7,4.7,0,0,0-.972-.4L7.055,0H4.8L4.628,1.42a4.693,4.693,0,0,0-.971.4L2.534.937l-1.6,1.6.884,1.122a4.69,4.69,0,0,0-.4.972L0,4.8V7.055l1.42.169a4.682,4.682,0,0,0,.4.972L.937,9.318l1.6,1.6,1.122-.884a4.655,4.655,0,0,0,.971.4L4.8,11.852H7.055l.169-1.421a4.628,4.628,0,0,0,.971-.4l1.123.884,1.6-1.6L10.031,8.2a4.643,4.643,0,0,0,.4-.971Zm-5.926.476a1.6,1.6,0,1,1,1.6-1.6,1.6,1.6,0,0,1-1.6,1.6" transform="translate(1062.831 3406.176)" fill="#fff"/>
      <path id="패스_50971-2" data-name="패스 50971" d="M31.363,18.67V12.693L27.6,12.247a12.37,12.37,0,0,0-1.059-2.572l2.339-2.968L24.657,2.48,21.688,4.818a12.424,12.424,0,0,0-2.571-1.059L18.67,0H12.694l-.447,3.759A12.418,12.418,0,0,0,9.676,4.818L6.7,2.48,2.48,6.705l2.339,2.97a12.41,12.41,0,0,0-1.06,2.572L0,12.693V18.67l3.759.447a12.389,12.389,0,0,0,1.06,2.571L2.48,24.657l4.226,4.226,2.97-2.338A12.319,12.319,0,0,0,12.247,27.6l.447,3.76H18.67l.447-3.76a12.246,12.246,0,0,0,2.569-1.059l2.971,2.338,4.227-4.226-2.339-2.971A12.285,12.285,0,0,0,27.6,19.117ZM15.682,19.929a4.247,4.247,0,1,1,4.247-4.247,4.247,4.247,0,0,1-4.247,4.247" transform="translate(1033.393 3384.736)" fill="#fff"/>
    </g>
  </g>
</svg>
